<?xml version="1.0" encoding="utf-8"?>
<!-- Svg Vector Icons : http://www.onlinewebfonts.com/icon -->
<!DOCTYPE svg PUBLIC "-//W3C//DTD SVG 1.1//EN" "http://www.w3.org/Graphics/SVG/1.1/DTD/svg11.dtd">
<svg version="1.1" xmlns="http://www.w3.org/2000/svg" xmlns:xlink="http://www.w3.org/1999/xlink" x="0px" y="0px" viewBox="0 0 256 256" enable-background="new 0 0 256 256" xml:space="preserve">
<metadata> Svg Vector Icons : http://www.onlinewebfonts.com/icon </metadata>
<g><g><g><path fill="#000000" d="M98.1,15.5v5.5h4.4h4.4v7.1v7.1l-5.4,1.3c-19.3,4.6-36.8,14.3-50.9,28.4c-26.4,26.4-37,64.7-27.9,101.1c6.3,25,22.3,47.8,43.6,62c13.8,9.2,27.7,14.6,44.4,17.2c7.3,1.1,23.1,1.1,30.4,0c30.5-4.7,56.6-21.4,73.5-46.9c6.9-10.4,12.8-24.8,15.3-37c4.9-24.6,1.1-50.4-10.6-71.6l-2.5-4.6l9.4-9.5c9.9-10,10.8-11.3,10.3-14.6c-0.1-0.8-0.6-2.2-1-3.1c-0.4-0.8-6.6-7.4-13.8-14.5c-10.8-10.8-13.3-13.1-14.9-13.5c-2.3-0.6-4-0.6-5.6,0c-0.7,0.3-5.5,4.8-10.8,9.9l-9.5,9.4L177,47c-9-4.9-19.2-8.8-29.2-10.9c-3-0.6-5.5-1.2-5.6-1.2c-0.1,0-0.2-3.1-0.2-6.9v-6.9h4.3h4.3l0.2-3.1c0.1-1.7,0.1-4.2,0-5.5l-0.1-2.4h-26.3H98.1V15.5z M133.5,53.9c20.4,2,38.9,10.7,53.1,24.8c13.9,14,22.3,30.9,24.9,50.5c0.9,6.7,0.6,18.6-0.5,25c-4.3,24-17.3,44-37.3,57.5c-25.4,17.1-58,19.3-85.5,6c-24.4-11.9-41.3-33.6-47.1-60.4c-1.6-7.4-2.1-21.8-0.9-29.4c3.9-26.3,19.4-49.3,42.2-62.7C97.4,56.3,116.2,52.2,133.5,53.9z"/><path fill="#000000" d="M122.3,58c-4.1,2.5-3.8,9,0.5,11.3c3.9,2.1,9-0.6,9.4-4.9C132.8,58.9,127,55.1,122.3,58z"/><path fill="#000000" d="M70,79.6c-5.8,3.1-3.7,12,2.9,12.1c7,0.1,9.3-9,3.1-12.2C73.9,78.5,72,78.5,70,79.6z"/><path fill="#000000" d="M175.7,79.6c-2.1,1-3.7,3.5-3.7,5.6c0,5,5.2,8.2,9.6,5.9c3.4-1.8,4.5-6.7,2.1-9.5C181.3,78.7,178.6,78.1,175.7,79.6z"/><path fill="#000000" d="M161.6,99.4c-25.6,18.6-40.6,29.7-44.9,32.9c-4.5,3.5-4.7,3.7-5.2,6c-0.3,1.2-0.5,5.1-0.5,8.6v6.3l6.8-0.3c3.7-0.2,7.5-0.6,8.4-0.8c1.5-0.4,2.6-1.7,9.5-11c10.6-14.1,35.3-48.2,35.1-48.3C170.9,92.8,166.7,95.7,161.6,99.4z"/><path fill="#000000" d="M48.5,132.2c-4.3,1.9-5.2,7.1-1.8,10.4c2.1,2.1,4.6,2.5,7.3,1.2c4.9-2.4,5-9.2,0.1-11.6C51.7,131.1,50.9,131.1,48.5,132.2z"/><path fill="#000000" d="M197.4,132.3c-1.5,0.7-2.2,1.3-2.9,2.9c-0.5,1.1-0.9,2.4-0.9,2.9c0,0.5,0.4,1.8,0.9,2.9c0.7,1.5,1.3,2.2,2.9,2.9c2.5,1.2,3.3,1.2,5.7,0c1.4-0.7,2.2-1.5,2.9-2.9c1.2-2.4,1.2-3.2,0-5.7c-0.7-1.5-1.5-2.3-2.9-2.9C200.8,131.2,199.9,131.2,197.4,132.3z"/><path fill="#000000" d="M71.5,184.4c-4.9,1.1-6.6,7.7-2.8,11.1c4.1,3.8,11,0.8,11-4.9C79.7,186.7,75.5,183.5,71.5,184.4z"/><path fill="#000000" d="M176.4,184.6c-2.2,0.8-3.1,1.5-3.9,3.3c-1.3,3.2-0.2,6.6,2.7,8.4c1.9,1.2,4.2,1.2,6.4,0c2.2-1.2,3.2-3,3.2-5.6C184.9,186.3,180.6,183.2,176.4,184.6z"/><path fill="#000000" d="M122.2,207.1c-1.9,1.2-2.9,3.1-2.9,5.6c0,3.8,2.7,6.4,6.5,6.4c5.8,0,8.5-6.9,4.4-11c-1.4-1.4-2-1.7-4.1-1.8C124.3,206.1,123.4,206.3,122.2,207.1z"/></g></g></g>
</svg>